PathFileType	4	(X/Y/Z)	2014001\dynamic\2014001_C1_03.trc
DataRate	CameraRate	NumFrames	NumMarkers	Units	OrigDataRate	OrigDataStartFrame	OrigNumFrames
100.000000	100.000000	4	52	mm	100.000000	61	490
Frame#	Time	L_IAS			L_IPS			R_IPS			R_IAS			L_FTC			L_FLE			L_FME			L_FAX			L_TTC			L_FAL			L_TAM			L_FCC			L_FM1			L_FM2			L_FM5			R_FTC			R_FLE			R_FME			R_FAX			R_TTC			R_FAL			R_TAM			R_FCC			R_FM1			R_FM2			R_FM5			CV7			TV10			SXS			SJN			L_SIA			L_SRS			L_SAA			L_SAE			L_HLE			L_HME			L_UOA			L_RSP			L_UHE			L_HM2			L_HM5			R_SIA			R_SRS			R_SAA			R_SAE			R_HLE			R_HME			R_UOA			R_RSP			R_UHE			R_HM2			R_HM5			
		X1	Y1	Z1	X2	Y2	Z2	X3	Y3	Z3	X4	Y4	Z4	X5	Y5	Z5	X6	Y6	Z6	X7	Y7	Z7	X8	Y8	Z8	X9	Y9	Z9	X10	Y10	Z10	X11	Y11	Z11	X12	Y12	Z12	X13	Y13	Z13	X14	Y14	Z14	X15	Y15	Z15	X16	Y16	Z16	X17	Y17	Z17	X18	Y18	Z18	X19	Y19	Z19	X20	Y20	Z20	X21	Y21	Z21	X22	Y22	Z22	X23	Y23	Z23	X24	Y24	Z24	X25	Y25	Z25	X26	Y26	Z26	X27	Y27	Z27	X28	Y28	Z28	X29	Y29	Z29	X30	Y30	Z30	X31	Y31	Z31	X32	Y32	Z32	X33	Y33	Z33	X34	Y34	Z34	X35	Y35	Z35	X36	Y36	Z36	X37	Y37	Z37	X38	Y38	Z38	X39	Y39	Z39	X40	Y40	Z40	X41	Y41	Z41	X42	Y42	Z42	X43	Y43	Z43	X44	Y44	Z44	X45	Y45	Z45	X46	Y46	Z46	X47	Y47	Z47	X48	Y48	Z48	X49	Y49	Z49	X50	Y50	Z50	X51	Y51	Z51	X52	Y52	Z52	

62	0.61	395.1889648437502	876.6160278320317	170.0017700195313	332.8905029296876	924.059204101563	-10.40608406066895	243.3979492187501	922.821655273438	-19.73594665527344	154.6017303466797	879.713989257813	150.7620086669922	454.1928710937502	795.5361328125005	95.79283142089847	404.7995300292971	438.7012023925784	113.5411453247071	288.6073608398439	435.4997558593752	125.2327041625977	405.4272155761721	375.5487060546876	98.43698120117193	354.1150512695314	364.3714294433595	159.4130096435547	340.6057739257814	59.43560028076175	104.1443557739258	254.2002868652345	75.72806549072268	128.7448883056641	289.3516845703126	19.67139053344727	64.48516845703128	282.7569580078126	24.37376976013185	247.0012054443361	342.5163574218751	39.35476684570314	249.9372863769532	381.630828857422	26.96008682250978	191.3839569091797	105.1818008422852	793.376831054688	40.42803955078126	105.6589508056641	451.4835205078127	-2.313245058059693	221.2151947021486	418.7995605468752	24.46971893310548	101.8037796020508	406.5157470703127	-51.30662918090823	140.7605743408204	358.3982238769532	3.006054639816286	143.1350097656251	179.4877624511719	-270.1404113769532	221.4841766357423	162.0077514648438	-224.5330505371095	206.3967895507814	182.6103057861329	-317.9093322753907	221.249969482422	38.98245239257814	-225.5930938720704	157.5937805175782	41.03365325927736	-219.1608886718751	116.7211227416993	64.27568054199222	-260.153533935547	292.7555541992189	1386.545654296875	26.60487365722658	296.2337036132814	1154.406860351563	-40.7875442504883	296.9906311035157	1154.152954101563	190.6249084472657	296.3641357421876	1317.024780273438	152.8418731689454	391.3512878417971	1193.659545898438	-41.1984100341797	383.4856567382814	1324.322143554688	-17.81133270263673	490.839050292969	1319.112426757813	58.62265396118167	474.5585937500002	1329.070922851563	99.19384002685553	555.755065917969	1046.003173828125	66.7160339355469	479.997253417969	1012.101318359375	42.75708007812501	530.363708496094	1008.880859375	35.11349105834962	515.3782958984377	829.3659667968755	190.6378936767579	581.264831542969	819.0478515625005	145.7169494628907	522.8853759765627	755.0166625976565	233.5869293212892	583.2528076171877	740.9492797851565	153.1514739990235	179.5172119140626	1198.061889648438	-44.00234985351564	202.8267822265626	1320.756469726563	-13.47430419921876	100.7955627441407	1314.515869140625	67.64546966552737	114.6137847900391	1318.112426757813	116.0046615600587	39.08599853515626	1013.459350585938	80.05228424072268	113.4097061157227	995.6787719726567	51.95253753662112	67.54100036621097	984.6877441406255	51.50170898437503	85.48810577392581	835.111938476563	220.540740966797	22.59262847900391	816.6454467773442	173.0379180908204	73.76869201660159	755.8157958984377	273.3145446777345	27.96761512756349	738.068298339844	183.2811737060547	
63	0.62	396.4118347167971	876.6044921875005	172.6912536621094	333.8416748046876	924.336303710938	-7.746819019317631	244.2940673828126	923.114624023438	-16.84982299804688	155.7355194091797	880.1378784179692	153.8148193359376	455.0224914550784	795.3867797851567	98.3096542358399	405.1138305664065	438.6285705566409	115.2390136718751	288.9327697753907	435.4752502441409	126.6918182373047	405.6723937988284	375.5020446777345	99.94969177246099	354.2574462890626	364.1964721679689	160.7687072753907	340.5152587890626	59.447624206543	104.2923660278321	254.0301055908204	75.67984008789065	128.7702941894532	289.326141357422	19.71150398254395	64.53159332275393	282.7360229492189	24.32301330566408	247.0094299316407	342.3294067382814	39.44941329956056	250.0027313232423	381.3997497558595	27.16137695312501	191.4915466308594	105.9668807983399	793.6967773437505	43.77985763549806	106.1772994995118	451.5859375000002	2.539749383926392	221.7604522705079	418.8165283203127	29.4623260498047	102.2560653686524	406.9813537597659	-46.48735809326173	141.1456909179688	358.5077209472657	7.673037052154545	143.6696777343751	181.4242248535157	-266.6578979492189	221.9572601318361	163.4705657958985	-221.1358337402345	207.0970306396486	185.0813903808594	-314.2320861816407	221.4687347412111	40.0928077697754	-223.7453765869142	157.6681823730469	41.80493927001955	-217.559295654297	117.1174011230469	66.18182373046878	-258.2211303710939	293.6428527832032	1386.787963867188	29.64403724670412	297.3401794433595	1154.66259765625	-37.79469680786134	298.1115722656251	1154.34765625	193.5941925048829	297.266326904297	1317.251098632813	155.8641052246094	392.5411682128909	1194.046508789063	-38.12052536010744	384.4958496093752	1324.687622070313	-14.71359062194825	491.8270263671877	1319.618408203125	61.84955215454104	475.4460449218752	1329.538208007813	102.3997344970704	556.8515625000002	1046.4287109375	70.499626159668	481.1550292968752	1012.459228515625	46.42850494384767	531.549255371094	1009.178588867188	38.94532394409181	515.9458618164065	830.301147460938	195.1726989746095	581.9556274414065	819.7255859375005	150.4615173339844	523.2596435546877	756.1173095703127	238.4260253906251	583.8457641601565	741.650329589844	158.2275848388672	180.6234588623047	1198.201538085938	-41.0105667114258	203.8043518066407	1320.903076171875	-10.50377464294434	101.7616195678712	1314.494384765625	70.56682586669925	115.5661392211915	1318.127319335938	118.9155502319337	40.19480895996095	1013.394287109375	83.15461730957034	114.5051651000977	995.6050415039067	55.11207199096683	68.65435028076175	984.4577026367192	54.77370452880862	87.1999435424805	836.406127929688	225.0283508300782	24.47005462646486	817.1448364257817	177.6553192138672	76.03183746337893	757.3227539062502	278.3263549804689	30.16780471801759	738.644226074219	188.5716094970704	
64	0.63	397.6289978027346	876.6023559570317	175.3502044677735	334.7780151367189	924.588989257813	-5.145036220550539	245.1798706054689	923.3770141601567	-14.01874923706055	156.8558502197266	880.5478515625005	156.8142547607422	455.8353271484377	795.2299194335942	100.8015594482422	405.4166564941409	438.5520324707034	116.9347305297852	289.243377685547	435.468200683594	128.1500396728516	405.9091796875002	375.4504394531251	101.4645233154297	354.3848266601564	364.0201721191407	162.1203765869141	340.4245605468751	59.46018981933597	104.445167541504	253.8670806884767	75.63365173339847	128.7915802001954	289.302947998047	19.74629402160645	64.57135009765628	282.7094726562501	24.2728614807129	247.0151824951173	342.131072998047	39.55668258666994	250.0567169189454	381.1616210937501	27.37036323547365	191.6001739501954	106.7434997558594	794.0054321289067	47.06993865966798	106.6968307495118	451.6809387207034	7.345817089080814	222.2907257080079	418.8284912109377	34.43779373168947	102.7189865112305	407.4326782226565	-41.70973587036134	141.5155639648438	358.6233520507814	12.3130693435669	144.2896118164063	183.3325653076172	-263.1559143066407	222.4860687255861	164.8773803710938	-217.6649322509767	207.8969726562501	187.4933624267579	-310.4951782226564	221.7009887695314	41.17173385620119	-221.8442230224611	157.7625274658204	42.54231643676759	-215.9171447753907	117.5464706420899	68.08914184570315	-256.2451782226564	294.4892578125001	1387.0126953125	32.61232376098634	298.4044189453126	1154.902709960938	-34.8800392150879	299.2344360351564	1154.518310546875	196.480438232422	298.1571655273439	1317.45458984375	158.8095855712891	393.6767578125002	1194.42041015625	-35.14028930664064	385.4575195312502	1325.04443359375	-11.7120532989502	492.783386230469	1320.114501953125	64.95838165283206	476.3108215332034	1329.992309570313	105.4924392700196	557.9215087890627	1046.842895507813	74.13346862792972	482.2873840332034	1012.809997558594	49.94197082519534	532.706481933594	1009.466125488282	42.6212615966797	516.4687500000002	831.2335815429692	199.5482482910157	582.6016235351565	820.3910522460942	155.0534820556641	523.576354980469	757.2180175781252	243.1095581054689	584.3884887695315	742.3421020507815	163.1569976806641	181.6846008300782	1198.3212890625	-38.07296371459962	204.7371673583986	1321.02490234375	-7.585862636566166	102.699562072754	1314.444213867188	73.4504318237305	116.4974594116212	1318.109008789063	121.7873001098633	41.27099227905275	1013.307800292969	86.18699645996097	115.5676193237305	995.5129394531255	58.18922805786136	69.73532867431643	984.2227172851567	57.95596313476565	88.86092376708987	837.565063476563	229.3299255371095	26.27906608581544	817.5756225585942	182.0649108886719	78.21680450439456	758.693054199219	283.0810546875001	32.28159713745119	739.153991699219	193.5766601562501	
65	0.64	398.8337402343752	876.6050415039067	177.9808502197266	335.704559326172	924.8149414062505	-2.590342044830323	246.0598449707032	923.6099243164067	-11.24150753021241	157.9598541259766	880.9443359375005	159.7563629150391	456.6337890625002	795.0666503906255	103.2721710205079	405.7107543945315	438.4711608886721	118.6261062622071	289.5381164550782	435.4795227050784	129.6103668212891	406.1404724121096	375.3943481445314	102.9782714843751	354.5010375976564	363.8417358398439	163.4654388427735	340.3348388671876	59.47258758544925	104.6013183593751	253.7130279541017	75.59124755859378	128.8095397949219	289.2822570800782	19.77392959594727	64.60321807861331	282.6781616210939	24.22360610961915	247.0182189941407	341.9235229492189	39.67442703247072	250.0984344482423	380.9199829101564	27.5842628479004	191.7076721191407	107.5141754150391	794.3027954101567	50.29140090942386	107.2154159545899	451.7664184570315	12.10962581634522	222.8087463378907	418.8310852050784	39.39309310913087	103.1911392211915	407.8674011230471	-36.96709060668947	141.8688659667969	358.7408142089845	16.93194389343262	144.9929809570313	185.2108001708985	-259.6291503906251	223.0668334960939	166.2258605957032	-214.1176300048829	208.7977905273439	189.8477020263672	-306.690887451172	221.9428253173829	42.21448135375978	-219.8865051269532	157.8758392333985	43.24202728271486	-214.2338867187501	118.009864807129	70.00074005126956	-254.2297210693361	295.2948303222657	1387.21923828125	35.50914001464845	299.4303283691407	1155.127075195313	-32.04269790649415	300.3587951660157	1154.667602539063	199.2852783203126	299.0366821289064	1317.63623046875	161.6781158447266	394.7590332031252	1194.7802734375	-32.25530242919923	386.371276855469	1325.392211914063	-8.807963371276859	493.7082519531252	1320.600708007813	67.94715881347659	477.1540832519534	1330.435546875	108.4701004028321	558.9610595703127	1047.245849609375	77.61808013916018	483.3877258300784	1013.154907226563	53.30371093750003	533.8283691406252	1009.744750976563	46.14307022094728	516.9544067382815	832.1581420898442	203.7609100341798	583.206726074219	821.0436401367192	159.4851074218751	523.8475341796877	758.3147583007815	247.6336364746095	584.885925292969	743.0246582031252	167.9280700683594	182.7032012939454	1198.419555664063	-35.19062805175783	205.6266937255861	1321.121337890625	-4.722460746765138	103.6101684570313	1314.364868164063	76.29429626464847	117.4085388183594	1318.058715820313	124.6176452636719	42.31443405151369	1013.200988769532	89.15497589111331	116.5970611572266	995.402709960938	61.18776702880862	70.78343200683597	983.9840698242192	61.05202484130862	90.46929168701175	838.5755004882817	233.4383850097657	28.01251220703126	817.9330444335942	186.2625122070313	80.3110275268555	759.9099731445315	287.5741271972657	34.29834365844728	739.5904541015627	198.2901153564454	
